inDegrees=yes
name=ik_lifting_orientations
DataType=double
version=3
OpenSimVersion=4.5-2024-01-10-34fd6af
endheader
time	pelvis_tilt	pelvis_list	pelvis_rotation	pelvis_tx	pelvis_ty	pelvis_tz	hip_flexion_r	hip_adduction_r	hip_rotation_r	knee_angle_r	knee_angle_r_beta	ankle_angle_r	subtalar_angle_r	mtp_angle_r	hip_flexion_l	hip_adduction_l	hip_rotation_l	knee_angle_l	knee_angle_l_beta	ankle_angle_l	subtalar_angle_l	mtp_angle_l	lumbar_extension	lumbar_bending	lumbar_rotation	arm_flex_r	arm_add_r	arm_rot_r	elbow_flex_r	pro_sup_r	wrist_flex_r	wrist_dev_r	arm_flex_l	arm_add_l	arm_rot_l	elbow_flex_l	pro_sup_l	wrist_flex_l	wrist_dev_l
0.02	-0.0001315381942651244	-0.000460565903651732	-90.10762328266235	0	0.9399999998679526	0	45.195772393727	-11.73894438351106	0	60.28240340757198	1.05212642047758	-5.871605980630267	0	0	45.195772393727	-11.73894438351106	0	60.28240340757198	1.05212642047758	-5.871605980630267	0	0	-0.0008294263955377124	-0.0007736325203833702	0.0005272511568121601	-0.2154792433702685	-0.05102344752314616	-0.005539318825005165	0.4538699342539485	2.23133292401603	0	0	0	-10.01221842219064	0	87.79961881792215	2.23133292401603	0	0
0.03	0.002139749842271647	-0.007764555990614316	-90.15607866712131	0	0.9399999998679526	0	45.19575145935553	-11.73829485102183	0	60.28237967589298	1.052126006281645	-5.871182006284672	0	0	45.19575145935553	-11.73829485102183	0	60.28237967589298	1.052126006281645	-5.871182006284672	0	0	-0.002144410242216348	-0.0005709434839919257	0.03565662629723553	-0.2690035507213653	-0.06537799752050896	-0.02190244191478583	0.4562398984172108	2.231166708470742	0	0	0	-10.01249240350362	0	87.79978271238342	2.231166708470742	0	0
0.04	0.001447426626908302	0.002371699761245182	-90.2281108220029	0	0.9399999998679526	0	45.19198795052696	-11.6375626075673	0	60.27807648310789	1.052050901399197	-5.809005241668551	0	0	45.19198795052696	-11.6375626075673	0	60.27807648310789	1.052050901399197	-5.809005241668551	0	0	-0.02334965648658925	-0.0006633776282276902	0.1461849575023412	-0.2939496872463553	-0.1076440403859939	-0.06087285756926566	0.5778709481685693	2.200730926312438	0	0	0	-10.06319810604963	0	87.82979354135253	2.200730926312438	0	0
0.05	-0.008560108241593567	0.007317025273367528	-90.36489242051198	0	0.9399999998679526	0	45.18395286989859	-11.42698258818259	0	60.2688720465243	1.051890253675022	-5.68022854255624	0	0	45.18395286989859	-11.42698258818259	0	60.2688720465243	1.051890253675022	-5.68022854255624	0	0	-0.04619318628494205	0.009867065402597358	0.3158960683918362	-0.4478157223589217	-0.1317978757936241	-0.04966507390959979	0.9647593887882617	2.135589135270191	0	0	0	-10.17188466701435	0	87.89402581587342	2.135589135270191	0	0
0.06	-0.01058615917732051	-0.0002526885616936138	-90.41744107617086	0	0.9399999998679526	0	45.1817396954285	-11.37050694475137	0	60.26632882862621	1.051845866149105	-5.645938950550336	0	0	45.1817396954285	-11.37050694475137	0	60.26632882862621	1.051845866149105	-5.645938950550336	0	0	-0.06882576545964322	-0.0005843373789082159	0.3719654316511947	-0.2453987861351751	-0.0725216924503639	-0.02503565064059619	0.5866088481305199	2.117553890054924	0	0	0	-10.20208412358841	0	87.91180925982881	2.117553890054924	0	0
0.07000000000000001	-0.0008194042134407745	-0.001317800910972741	-90.53647882727137	0	0.9399999998679526	0	45.17765525041444	-11.27490591061544	0	60.26159901533663	1.051763315334197	-5.589898753238903	0	0	45.17765525041444	-11.27490591061544	0	60.26159901533663	1.051763315334197	-5.589898753238903	0	0	-0.1359327562787577	0.0007650710293050635	0.4889971675890756	-0.1156506668470479	-0.07108164151028649	-0.01145645557301977	0.4643255392727687	2.083936330941125	0	0	0	-10.25869377401379	0	87.94495749350563	2.083936330941125	0	0
0.08	0.0665967289250375	0.03317848208738469	-90.53937228921777	0	0.9399999998679526	0	45.17307009965342	-11.17479300775983	0	60.25625417430727	1.051670030260239	-5.532694891179293	0	0	45.17307009965342	-11.17479300775983	0	60.25625417430727	1.051670030260239	-5.532694891179293	0	0	-0.09861710048744482	-0.06285706650834566	0.4907391963428977	-0.1231032349062226	-0.0528900484126394	-0.03365799557211439	0.4555747127580759	2.045840398780881	0	0	0	-10.32321478813335	0	87.98252161116777	2.045840398780881	0	0
0.09	0.06459418839175116	0.05621950192473599	-90.53810419193917	0	0.9399999998679526	0	45.16975861243002	-11.10780080079417	0	60.25236303895348	1.051602117136675	-5.495392777885588	0	0	45.16975861243002	-11.10780080079417	0	60.25236303895348	1.051602117136675	-5.495392777885588	0	0	0.009963360552555898	-0.05872947759510084	0.4912436018456079	-0.274189064116504	-0.06839746978987056	-0.03805004153741787	0.5825159972479927	2.018020695517967	0	0	0	-10.37065596181896	0	88.00995298030337	2.018020695517967	0	0
0.1	0.0372500865932953	0.06866399444209577	-90.52445997179683	0	0.9399999998679526	0	45.1662353821112	-11.03558505472227	0	60.24823008888567	1.051529983550171	-5.455052800989212	0	0	45.1662353821112	-11.03558505472227	0	60.24823008888567	1.051529983550171	-5.455052800989212	0	0	0.02135840714037529	-0.0430591998153756	0.4785233895958872	-0.4547908092270071	-0.08317851719097519	-0.01169210774975708	0.97796635513769	1.988488261653155	0	0	0	-10.42094537766214	0	88.03907316509454	1.988488261653155	0	0
0.11	0.05164803200928018	0.02642599882391552	-90.53303758915082	0	0.9399999998679526	0	45.16391564449711	-10.99118545506814	0	60.24548995881403	1.051482159258488	-5.430830135351512	0	0	45.16391564449711	-10.99118545506814	0	60.24548995881403	1.051482159258488	-5.430830135351512	0	0	-0.1064860265218236	-0.05940864272685942	0.4887185110429768	-0.1445900955173933	-0.02419236366126279	-0.00862717342026746	0.4550861467609091	1.968852953219562	0	0	0	-10.45458358899113	0	88.0584343957956	1.968852953219562	0	0
0.12	0.06415808192363545	0.02858731480220078	-90.6066599611126	0	0.9399999998679526	0	45.16051167030933	-10.92965585952425	0	60.24144615501292	1.051411581567854	-5.397959271412174	0	0	45.16051167030933	-10.92965585952425	0	60.24144615501292	1.051411581567854	-5.397959271412174	0	0	-0.1077105038415279	-0.06374571916832193	0.5303103849479129	-0.1739547715746199	-0.03069602761970702	0.05019095037762228	0.4829916262997175	1.939812678981016	0	0	0	-10.5045749708375	0	88.08706933133207	1.939812678981016	0	0
0.13	0.06134675090687361	0.04395101888082036	-90.6297550567481	0	0.9399999998679526	0	45.15771472475731	-10.88058222619023	0	60.23811367318178	1.051353418787637	-5.372025494760403	0	0	45.15771472475731	-10.88058222619023	0	60.23811367318178	1.051353418787637	-5.372025494760403	0	0	-0.08366844916664601	-0.05718322239400535	0.5258800599025737	-0.1876517724833282	-0.03701727977331012	0.07371320256811274	0.4920251889177163	1.915851918092871	0	0	0	-10.54592777763296	0	88.11069565927913	1.915851918092871	0	0
0.14	0.05842729837610448	0.04395931672137629	-90.67183884536574	0	0.9399999998679526	0	45.15276615213842	-10.79773338678416	0	60.23219025641332	1.05125003566206	-5.328984749266827	0	0	45.15276615213842	-10.79773338678416	0	60.23219025641332	1.05125003566206	-5.328984749266827	0	0	-0.1473838252213518	-0.05539243015485217	0.5614904873184096	-0.1148649042613413	-0.03226439203677757	0.09873750237923225	0.4842991817960207	1.873182709342526	0	0	0	-10.61986284191967	0	88.15276933108893	1.873182709342526	0	0
0.15	0.05878866926737435	0.03685118592989338	-90.72764148189346	0	0.9399999998679526	0	45.14874828923694	-10.73372466821535	0	60.22735786522642	1.051165694525104	-5.296345442126093	0	0	45.14874828923694	-10.73372466821535	0	60.22735786522642	1.051165694525104	-5.296345442126093	0	0	-0.1566330209762573	-0.05837512175848228	0.6212282275462174	-0.1114147856660845	-0.01567497575482046	0.1375302458518202	0.4897751374364884	1.838304847134446	0	0	0	-10.68054685359527	0	88.18716041601738	1.838304847134446	0	0
0.16	0.05747082481452825	0.04999949634528311	-90.78316689527037	0	0.9399999998679526	0	45.14611985497669	-10.69445676441341	0	60.22417568108167	1.051110154934374	-5.276765542906367	0	0	45.14611985497669	-10.69445676441341	0	60.22417568108167	1.051110154934374	-5.276765542906367	0	0	-0.1379230476260512	-0.05275126700834567	0.6787536206570274	-0.1225068886465947	-0.02154737000392305	0.1302123387452931	0.500231886115224	1.815278941468572	0	0	0	-10.72083600767117	0	88.20986497117562	1.815278941468572	0	0
